<svg xmlns="http://www.w3.org/2000/svg" width="192" height="47.584" viewBox="0 0 192 47.584"><g transform="translate(-140 -30)"><path d="M10.41,11.9a7.414,7.414,0,0,1,3.718-6.4v18.3h4.461V4.461h4.461V23.792H27.51V5.493a7.414,7.414,0,0,1,3.718,6.4v11.9h4.461V11.9A11.9,11.9,0,0,0,23.793,0H17.845a11.9,11.9,0,0,0-11.9,11.9v11.9H10.41ZM41.479,31.775,40.484,28.8a2.978,2.978,0,0,0-2.825-2.035H3.969A2.978,2.978,0,0,0,1.144,28.8L.149,31.775a2.981,2.981,0,0,0,2.825,3.913V46.1a1.491,1.491,0,0,0,1.487,1.487H7.436A1.491,1.491,0,0,0,8.923,46.1V35.688H32.715V46.1A1.491,1.491,0,0,0,34.2,47.584h2.974A1.491,1.491,0,0,0,38.663,46.1V35.688A2.972,2.972,0,0,0,41.479,31.775Z" transform="translate(140.002 30)" fill="#492540"/><text transform="translate(196 66)" fill="#492540" font-size="34" font-family="Roboto-Regular, Roboto"><tspan x="0" y="0">Furniture</tspan></text></g></svg>